<?xml version="1.0" standalone="no"?><!DOCTYPE svg PUBLIC "-//W3C//DTD SVG 1.1//EN" "http://www.w3.org/Graphics/SVG/1.1/DTD/svg11.dtd"><svg t="1602580994620" class="icon" viewBox="0 0 1024 1024" version="1.1" xmlns="http://www.w3.org/2000/svg" p-id="6971" xmlns:xlink="http://www.w3.org/1999/xlink" width="400" height="400"><defs><style type="text/css"></style></defs><path d="M182.613333 269.653333a25.6 25.6 0 1 0 51.2 0 25.6 25.6 0 1 0-51.2 0Z" fill="#ffffff" p-id="6972"></path><path d="M798.72 286.72H296.96c-10.24 0-17.066667-6.826667-17.066667-17.066667s6.826667-17.066667 17.066667-17.066666h501.76c10.24 0 17.066667 6.826667 17.066667 17.066666s-8.533333 17.066667-17.066667 17.066667z" fill="#ffffff" p-id="6973"></path><path d="M182.613333 510.293333a25.6 25.6 0 1 0 51.2 0 25.6 25.6 0 1 0-51.2 0Z" fill="#ffffff" p-id="6974"></path><path d="M798.72 527.36H296.96c-10.24 0-17.066667-6.826667-17.066667-17.066667s6.826667-17.066667 17.066667-17.066666h501.76c10.24 0 17.066667 6.826667 17.066667 17.066666s-8.533333 17.066667-17.066667 17.066667z" fill="#ffffff" p-id="6975"></path><path d="M182.613333 764.586667a25.6 25.6 0 1 0 51.2 0 25.6 25.6 0 1 0-51.2 0Z" fill="#ffffff" p-id="6976"></path><path d="M798.72 781.653333H296.96c-10.24 0-17.066667-6.826667-17.066667-17.066666s6.826667-17.066667 17.066667-17.066667h501.76c10.24 0 17.066667 6.826667 17.066667 17.066667s-8.533333 17.066667-17.066667 17.066666z" fill="#ffffff" p-id="6977"></path></svg>